<svg viewBox="0 0 396 121" xmlns="http://www.w3.org/2000/svg" fill-rule="evenodd" clip-rule="evenodd" stroke-linejoin="round" stroke-miterlimit="1.41"><path d="M1513.71 1483.12c-22.8 23.6-45.19 47.62-68.4 70.82l-68.4-70.82 26.79-46.4h83.22c8.93 15.46 17.86 30.93 26.79 46.4zm-96.16-22.4l-10.81 18.73 38.57 39.94 38.57-39.94-10.81-18.73h-55.52z" fill="url(#_Linear1)" fill-rule="nonzero" transform="matrix(-.5001 0 0 .5001 814.073 -680.244)"/><path d="M349.909 364.658l38.574 39.942 38.573-39.942.044.071c7.574 13.118 5.094 29.31-5.02 39.628l-.032.036-33.565 34.756c-23.209-23.209-45.601-47.219-68.402-70.829l23.994-41.559c-6.668 11.839-4.941 27.142 5.132 37.215.214.214.449.44.704.678l-.002.004zm-5.505-38.465l-.001.001.041-.071-.04.07zm7.842-4.271h-5.376l-1.876 3.248 1.876-3.248h5.376z" fill="url(#_Linear2)" fill-rule="nonzero" transform="translate(-103.012 -122.733) scale(.5001)"/><path d="M1376.64 1389.88c2.17-1.58 4.39-3.09 6.67-4.51 8.89-5.55 18.53-9.82 28.57-12.77 1.54-.47 2.78-.83 2.82-.84 10.02-2.71 20.4-4.05 30.79-4.04 14.78-.04 29.6 2.66 43.47 8.22.28.11.55.22.82.34 3.63 1.46 7.19 3.12 10.65 4.96 32.32 17.21 55.74 50.11 60.99 86.79 5.42 37.85-8.81 77.96-37.68 103.93-36.51 32.85-94.06 39.79-138.05 13.44-1.84-1.1-3.2-2.05-5.35-3.38 0 0-2.41-1.57-4.35-2.73-17.17-10.27-37.01-15.91-56.85-16.41h-20.9v-40.09c16.06-3.87 29.48-18.29 30.4-35.94-.01-.75 0-78.83 0-78.83.84-18.07-12.32-35.56-30.4-39.87v-40.07c10.17-.01 20.35-.02 30.52.01 22.34 0 44.32 10.61 59.12 27.55-7.54 3.38-14.78 7.4-21.61 12.01-5.14-5.14-11.29-9.28-18.21-11.95-6.25-2.41-12.99-3.63-19.67-3.61h-6.29c19.06 11.51 31.46 33.76 30.53 56.74l.01-.24c-.01 38.48-.05 79.83-.05 79.83-1.19 20.4-12.73 39.71-30.42 50.42l-.2.12c.3.01.59.02.89.04 25.07 1.19 49.33 9.03 70.11 22.61 0 0 3.99 2.67 7.58 4.66 28.93 16.12 66.45 15.19 94.66-2.69 31.13-19.73 48.82-58.85 41.79-96.18-5.96-31.65-29.44-59.18-59.88-70.3-.3-.11-.61-.21-.91-.32-32.56-11.42-71.08-3.07-95.97 21.37a98.411 98.411 0 00-3.62 3.75c.01-9.3.02-20.19.02-32.02z" fill="url(#_Linear3)" fill-rule="nonzero" transform="rotate(-15 -2176.806 2800.635) scale(.5001)"/><path d="M395.262 276.742c-34.276-2.438-69.109 15.578-86.767 45.512a90.751 90.751 0 00-2.507 4.542c6.7-32.92 31.353-60.926 65.983-70.205 14.437-3.869 29.001-4.051 42.689-1.125.156-.004.283.006.381.028 35.672 8.262 66.816 33.971 81.378 68.04 15.031 35.164 11.666 77.59-9.498 110.143-16.692 25.676-43.889 43.742-73.955 50.295l-.004.002-.44.095.444-.097c52.665-17.125 83.313-72.778 68.814-126.891a105.93 105.93 0 00-2.076-6.823 89.873 89.873 0 00-7.039-21.008c-13.949-29.03-43.753-49.542-76.034-52.41a85.9 85.9 0 01-.966-.068l-.403-.03z" fill="url(#_Linear4)" fill-rule="nonzero" transform="translate(-103.012 -122.733) scale(.5001)"/><path d="M299.142 96.931h-12.003V38.329h12.003v58.602zm67.788-58.667c10.587.1 20.82 6.326 25.745 15.653 4.221 7.992 4.446 17.994.556 26.19-5.482 11.548-18.99 18.74-32.032 16.239-11.957-2.296-21.884-12.783-23.5-24.865-1.235-9.247 2.246-18.994 9.087-25.365 5.316-4.946 12.493-7.782 19.77-7.852h.374zM185.98 43.94c6.07-4.396 13.792-6.476 21.309-5.366 9.222 1.36 17.714 7.227 22.02 15.538 4.25 8.202 4.315 18.454.13 26.676-7.322 14.383-27.471 21.069-42.134 11.212-.45-.305-.89-.62-1.325-.945v5.821h-12.003v-78.14h12.003V43.94zm84.912-5.676c2.46.03 4.91.385 7.286 1.03l.11.03-3.1 11.578c-.91-.26-1.256-.32-1.9-.425-9.373-1.526-19.575 6.31-19.835 16.258-.015.57-.005 1.155-.035 1.61v28.521h-12.002V38.264h12.002v5.656c4.921-3.555 10.988-5.58 17.099-5.656h.375zm52.21 38.973s-.005 2.16.95 3.796c1.676 2.86 5.322 4.36 8.547 3.52l3.09 11.528c-5.27 1.41-11.056.685-15.642-2.37-5.411-3.606-8.862-9.978-8.947-16.474V18.725h12.002v58.512zm43.53-26.97c-7.672.075-14.934 5.75-16.72 13.282-1.374 5.781.48 12.223 4.752 16.394 4.76 4.65 12.302 6.226 18.609 3.65 5.506-2.25 9.671-7.501 10.572-13.382 1.43-9.342-5.917-19.21-15.869-19.904-.45-.03-.895-.04-1.345-.04zm-163.464.01c-9.317.115-18.053 8.586-17.063 18.528.85 8.502 8.411 16.069 17.163 16.069 8.837.005 17.244-7.842 17.289-16.919.045-9.002-7.812-17.598-17.164-17.678h-.225zm95.97-19.494h-12.003V18.79h12.003v11.993z" fill="#00065b" fill-rule="nonzero"/><defs><linearGradient id="_Linear1" x1="0" y1="0" x2="1" y2="0" gradientUnits="userSpaceOnUse" gradientTransform="scale(-54.3129 54.3129) rotate(-25.003 47.8 75.44)"><stop offset="0" stop-color="#009e67"/><stop offset="1" stop-color="#02eb81"/></linearGradient><linearGradient id="_Linear2" x1="0" y1="0" x2="1" y2="0" gradientUnits="userSpaceOnUse" gradientTransform="scale(-59.8804) rotate(-27.935 -16.334 11.384)"><stop offset="0" stop-color="#009e67"/><stop offset="1" stop-color="#01d684"/></linearGradient><linearGradient id="_Linear3" x1="0" y1="0" x2="1" y2="0" gradientUnits="userSpaceOnUse" gradientTransform="scale(-122.968) rotate(-61.972 -15.357 4.116)"><stop offset="0" stop-color="#3f99fe"/><stop offset="1" stop-color="#264afb"/></linearGradient><linearGradient id="_Linear4" x1="0" y1="0" x2="1" y2="0" gradientUnits="userSpaceOnUse" gradientTransform="scale(-212.176) rotate(41.503 1.942 -3.864)"><stop offset="0" stop-color="#3477fd"/><stop offset=".07" stop-color="#3b8bfe"/><stop offset=".14" stop-color="#419dff"/><stop offset=".37" stop-color="#43a4ff"/><stop offset=".73" stop-color="#44a8ff"/><stop offset="1" stop-color="#264afb"/></linearGradient></defs></svg>